HIERARCHY
ROOT hip
{
  OFFSET 0 0 0
  CHANNELS 6 Xposition Yposition Zposition Zrotation Yrotation Xrotation
  JOINT abdomen
  {
    OFFSET 0 20.6881 -0.73152
    CHANNELS 3 Zrotation Xrotation Yrotation
    JOINT chest
    {
      OFFSET 0 11.7043 -0.48768
      CHANNELS 3 Zrotation Xrotation Yrotation
      JOINT neck
      {
        OFFSET 0 22.1894 -2.19456
        CHANNELS 3 Zrotation Xrotation Yrotation
        JOINT head
        {
          OFFSET -0.24384 7.07133 1.2192
          CHANNELS 3 Zrotation Xrotation Yrotation
          JOINT leftEye
          {
            OFFSET 4.14528 8.04674 8.04672
            CHANNELS 3 Zrotation Xrotation Yrotation
            End Site
            {
              OFFSET 1 0 0
            }
          }
          JOINT rightEye
          {
            OFFSET -3.6576 8.04674 8.04672
            CHANNELS 3 Zrotation Xrotation Yrotation
            End Site
            {
              OFFSET 1 0 0
            }
          }
        }
      }
      JOINT rCollar
      {
        OFFSET -2.68224 19.2634 -4.8768
        CHANNELS 3 Zrotation Xrotation Yrotation
        JOINT rShldr
        {
          OFFSET -8.77824 -1.95073 1.46304
          CHANNELS 3 Zrotation Xrotation Yrotation
          JOINT rForeArm
          {
            OFFSET -28.1742 -1.7115 0.48768
            CHANNELS 3 Zrotation Xrotation Yrotation
            JOINT rHand
            {
              OFFSET -22.5879 0.773209 7.07136
              CHANNELS 3 Zrotation Xrotation Yrotation
              JOINT rThumb1
              {
                OFFSET -1.2192 -0.487915 3.41376
                CHANNELS 3 Zrotation Xrotation Yrotation
                JOINT rThumb2
                {
                  OFFSET -3.37035 -0.52449 3.41376
                  CHANNELS 3 Zrotation Xrotation Yrotation
                  End Site
                  {
                    OFFSET -1.78271 -1.18214 1.43049
                  }
                }
              }
              JOINT rIndex1
              {
                OFFSET -7.75947 0.938293 5.60832
                CHANNELS 3 Zrotation Xrotation Yrotation
                JOINT rIndex2
                {
                  OFFSET -2.54057 -0.884171 1.56538
                  CHANNELS 3 Zrotation Xrotation Yrotation
                  End Site
                  {
                    OFFSET -1.62519 -0.234802 1.16502
                  }
                }
              }
              JOINT rMid1
              {
                OFFSET -8.24714 1.18213 3.41376
                CHANNELS 3 Zrotation Xrotation Yrotation
                JOINT rMid2
                {
                  OFFSET -3.10165 -0.590103 1.0647
                  CHANNELS 3 Zrotation Xrotation Yrotation
                  End Site
                  {
                    OFFSET -2.48547 -0.328903 0.83742
                  }
                }
              }
              JOINT rRing1
              {
                OFFSET -8.82822 0.546677 1.51678
                CHANNELS 3 Zrotation Xrotation Yrotation
                JOINT rRing2
                {
                  OFFSET -2.60934 -0.819778 -0.0198488
                  CHANNELS 3 Zrotation Xrotation Yrotation
                  End Site
                  {
                    OFFSET -2.33842 -0.294052 0.168128
                  }
                }
              }
              JOINT rPinky1
              {
                OFFSET -8.27202 -0.0477905 -0.4584
                CHANNELS 3 Zrotation Xrotation Yrotation
                JOINT rPinky2
                {
                  OFFSET -1.82734 -0.647385 -0.700984
                  CHANNELS 3 Zrotation Xrotation Yrotation
                  End Site
                  {
                    OFFSET -1.69225 -0.51767 -0.607171
                  }
                }
              }
            }
          }
        }
      }
      JOINT lCollar
      {
        OFFSET 2.68224 19.2634 -4.8768
        CHANNELS 3 Zrotation Xrotation Yrotation
        JOINT lShldr
        {
          OFFSET 8.77824 -1.95073 1.46304
          CHANNELS 3 Zrotation Xrotation Yrotation
          JOINT lForeArm
          {
            OFFSET 28.1742 -1.7115 0.48768
            CHANNELS 3 Zrotation Xrotation Yrotation
            JOINT lHand
            {
              OFFSET 22.5879 0.773209 7.07136
              CHANNELS 3 Zrotation Xrotation Yrotation
              JOINT lThumb1
              {
                OFFSET 1.2192 -0.487915 3.41376
                CHANNELS 3 Zrotation Xrotation Yrotation
                JOINT lThumb2
                {
                  OFFSET 3.37035 -0.52449 3.41376
                  CHANNELS 3 Zrotation Xrotation Yrotation
                  End Site
                  {
                    OFFSET 1.78271 -1.18214 1.43049
                  }
                }
              }
              JOINT lIndex1
              {
                OFFSET 7.75947 0.938293 5.60832
                CHANNELS 3 Zrotation Xrotation Yrotation
                JOINT lIndex2
                {
                  OFFSET 2.54057 -0.884171 1.56538
                  CHANNELS 3 Zrotation Xrotation Yrotation
                  End Site
                  {
                    OFFSET 1.62519 -0.234802 1.16502
                  }
                }
              }
              JOINT lMid1
              {
                OFFSET 8.24714 1.18213 3.41376
                CHANNELS 3 Zrotation Xrotation Yrotation
                JOINT lMid2
                {
                  OFFSET 3.10165 -0.590103 1.0647
                  CHANNELS 3 Zrotation Xrotation Yrotation
                  End Site
                  {
                    OFFSET 2.48547 -0.328903 0.83742
                  }
                }
              }
              JOINT lRing1
              {
                OFFSET 8.82822 0.546677 1.51678
                CHANNELS 3 Zrotation Xrotation Yrotation
                JOINT lRing2
                {
                  OFFSET 2.60934 -0.819778 -0.0198488
                  CHANNELS 3 Zrotation Xrotation Yrotation
                  End Site
                  {
                    OFFSET 2.33842 -0.294052 0.168128
                  }
                }
              }
              JOINT lPinky1
              {
                OFFSET 8.27202 -0.0477905 -0.4584
                CHANNELS 3 Zrotation Xrotation Yrotation
                JOINT lPinky2
                {
                  OFFSET 1.82734 -0.647385 -0.700984
                  CHANNELS 3 Zrotation Xrotation Yrotation
                  End Site
                  {
                    OFFSET 1.69225 -0.51767 -0.607171
                  }
                }
              }
            }
          }
        }
      }
    }
  }
  JOINT rButtock
  {
    OFFSET -8.77824 4.35084 1.2192
    CHANNELS 3 Zrotation Xrotation Yrotation
    JOINT rThigh
    {
      OFFSET 0 -1.70687 -2.19456
      CHANNELS 3 Zrotation Xrotation Yrotation
      JOINT rShin
      {
        OFFSET 0 -36.8199 0.73152
        CHANNELS 3 Zrotation Xrotation Yrotation
        JOINT rFoot
        {
          OFFSET 0.73152 -45.1104 -5.12064
          CHANNELS 3 Zrotation Xrotation Yrotation
          End Site
          {
            OFFSET -1.1221 -3.69964 12.103
          }
        }
      }
    }
  }
  JOINT lButtock
  {
    OFFSET 8.77824 4.35084 1.2192
    CHANNELS 3 Zrotation Xrotation Yrotation
    JOINT lThigh
    {
      OFFSET 0 -1.70687 -2.19456
      CHANNELS 3 Zrotation Xrotation Yrotation
      JOINT lShin
      {
        OFFSET 0 -36.8199 0.73152
        CHANNELS 3 Zrotation Xrotation Yrotation
        JOINT lFoot
        {
          OFFSET -0.73152 -45.1104 -5.12064
          CHANNELS 3 Zrotation Xrotation Yrotation
          End Site
          {
            OFFSET 1.1221 -3.69964 12.103
          }
        }
      }
    }
  }
}
MOTION
Frames:	4
Frame Time:	0.03333
22.85749986767769 62.17300295829773 -2.125999999771011 -543.5439952815135 42.80560149079197 -180.61399803420545 -5.651890184405403 13.246700248980863 -1.3484300332090804 5.444050089282853 -10.915700119228083 0.018944200008744805 -7.837430336725362 19.45959997369631 -15.573399920877476 12.78999965012796 -27.87030004029189 -27.760299843708836 -0.0 0.0 0.0 -0.0 0.0 0.0 -5.319210296662178e-14 -5.980680109525494e-14 -4.213730226244103e-13 51.75549888858316 -8.080929995730902 27.370000636419505 -27.651600798162665 -28.833001543426846 65.39219696275623 -1.639560016391704 33.784499370903404 5.395429814562941 -2.53419997368049e-09 1.400450009654294e-09 2.0971400764338288e-09 -4.321600142182653e-09 2.404810039621864e-09 3.6805001083027393e-09 -2.53419997368049e-09 1.400450009654294e-09 2.0971299384157815e-09 7.730910121524428 5.474879855648998 0.41731399283890674 -2.53419003444711e-09 1.400450009654294e-09 2.0971500156672085e-09 2.90554006136521 0.9651829962377875 0.10290200252939893 -2.534180095213731e-09 1.400450009654294e-09 2.0971500156672085e-09 10.278599710243157 0.7318009818271524 0.025912300303053633 -2.53419997368049e-09 1.400450009654294e-09 2.0971500156672085e-09 2.221669932038622 -0.7334870246959406 -0.20891999872313852 -5.3250898773454555e-14 -5.980840263188349e-14 -4.2166401697667556e-13 -83.20940111089482 80.40289687150408 10.39039966167251 27.41950072488188 -42.77639901699558 -89.05889805949879 66.93140058278611 -81.71309790904178 74.77969775048096 -5.337400130377779e-10 -2.904970054509752e-10 2.2667200958014304e-09 -1.066899972415524e-09 -4.193040034718888e-10 3.7947798234237345e-09 -5.337470201973105e-10 -2.9050299383908637e-10 2.2667200958014304e-09 -7.730910121524428 5.474879855648998 -0.41731399283890674 -5.337439887311297e-10 -2.9050299383908637e-10 2.266709957783383e-09 -2.90554006136521 0.9651829962377875 -0.10290200252939893 -5.337480141206485e-10 -2.905039877624243e-10 2.266709957783383e-09 -10.278599710243157 0.7318009818271524 -0.025912300303053633 -5.337320119549073e-10 -2.905010059924104e-10 2.2667000185500034e-09 -2.221669932038622 -0.7334870246959406 0.20891999872313852 -2.0321699793705798e-16 0.0 -3.882510030490358e-19 -67.25399724747498 -46.91989912603797 -66.74120030496877 -2.323369954676231 71.10780171306045 2.4939900011338536 4.553810063052562 -6.208489983832558 19.621700853268223 2.0321699793705798e-16 0.0 3.882510030490358e-19 23.095000602834155 -33.866301131498055 33.97079961070467 7.3471397213079825 84.06790124805205 -9.532130043399755 21.022700718084778 -27.955899386065074 31.35369993209298
22.88699986820575 62.12419867515564 -2.1299999996699626 -543.5060194297282 42.91909874423008 -180.58099456013596 -5.612690021211407 13.253900122139703 -1.3331299825814287 5.4075000394868225 -10.918000185431083 0.020521600181047515 -7.8405901529901385 19.431999179260288 -15.568200439371804 12.803899938862584 -27.883999692219643 -27.73910064407241 -0.0 0.0 0.0 -0.0 0.0 0.0 -5.969159965367895e-14 -4.0494999246988066e-14 -2.4925799227119175e-13 51.692599676516515 -8.072520325315322 27.432800810743185 -27.648300109246257 -28.81549918367869 65.3607029604933 -1.6464799585162788 33.84540075263782 5.407870150362473 -1.4955499861227264e-09 8.162429924738958e-10 1.1135900181777393e-09 -2.5523599469883086e-09 1.4034700457166774e-09 1.9590099781105414e-09 -1.4955499861227264e-09 8.1624100462722e-10 1.113579979552026e-09 7.730910121524428 5.474879855648998 0.41731399283890674 -1.4955499861227264e-09 8.16240010703882e-10 1.1135900181777393e-09 2.90554006136521 0.9651829962377875 0.10290200252939893 -1.4955400468893468e-09 8.16240010703882e-10 1.1135900181777393e-09 10.278599710243157 0.7318009818271524 0.025912300303053633 -1.4955499861227264e-09 8.162369792377012e-10 1.1135900181777393e-09 2.221669932038622 -0.7334870246959406 -0.20891999872313852 -5.975319814961169e-14 -4.0492299687140714e-14 -2.4957199051321243e-13 -83.7107028450279 80.34010011227498 10.905899651542759 27.41240074323965 -42.7993996790256 -89.10289813813202 66.3341005398685 -81.6891990771359 74.17610027314859 -9.507090421079703e-10 -1.475679967711952e-10 1.7579100654956338e-09 -1.7428300618274772e-09 -2.1005700064807858e-10 2.9115000314477977e-09 -9.507159995713362e-10 -1.4757399758334813e-10 1.7579200047290133e-09 -7.730910121524428 5.474879855648998 -0.41731399283890674 -9.507130178013222e-10 -1.475750039307278e-10 1.7578999274775865e-09 -2.90554006136521 0.9651829962377875 -0.10290200252939893 -9.507159995713362e-10 -1.4757599785406575e-10 1.7579100654956338e-09 -10.278599710243157 0.7318009818271524 -0.025912300303053633 -9.50699997405595e-10 -1.4757300366001015e-10 1.7578999274775865e-09 -2.221669932038622 -0.7334870246959406 0.20891999872313852 -2.0321699793705798e-16 0.0 -3.882510030490358e-19 -67.31120008177383 -47.034198926703546 -66.80789710221394 -2.342090009087355 71.2134988904664 2.5115299269224467 4.5734302083302465 -6.255120112183058 19.594800153222128 2.0321699793705798e-16 0.0 3.882510030490358e-19 23.17109915547185 -33.855601640163236 34.01320142507211 7.41553040546732 84.11940087439395 -9.605529817541651 21.056699692225806 -27.965299433910303 31.389100802561153
22.920299868565053 62.0913028717041 -2.1169999996345723 -543.5300070540933 43.00949971298978 -180.59700452355048 -5.554139932098765 13.270699826176996 -1.3635400124787354 5.361640014965241 -10.907399731839224 0.0068806001682546105 -7.7958600978893715 19.325600199917123 -15.545599343408231 12.704899761937833 -27.803099516595427 -27.707700556910567 -0.0 0.0 0.0 -0.0 0.0 0.0 -2.4699600074295795e-14 -3.7236199794937555e-14 -2.1215698885998048e-13 51.70340162068889 -8.005160145947011 27.621599192233386 -27.6381999670111 -28.770699972912574 65.2897987667194 -1.6592400325463321 33.95680113800073 5.430720121343927 -9.736809958641757e-10 5.525439989724261e-10 6.614030052967026e-10 -1.664490018253017e-09 9.511020393957987e-10 1.1653400282611619e-09 -9.73678014094162e-10 5.525430050490881e-10 6.613899849009754e-10 7.730910121524428 5.474879855648998 0.41731399283890674 -9.73677020170824e-10 5.525400232790743e-10 6.614100124562352e-10 2.90554006136521 0.9651829962377875 0.10290200252939893 -9.736689693917865e-10 5.525410172024122e-10 6.614039992200406e-10 10.278599710243157 0.7318009818271524 0.025912300303053633 -9.736809958641757e-10 5.525410172024122e-10 6.614010174500268e-10 2.221669932038622 -0.7334870246959406 -0.20891999872313852 -2.4784699906967092e-14 -3.7231798602422365e-14 -2.1250299356886559e-13 -84.52600203568481 80.17000108118499 11.739999791663779 27.407600827800422 -42.81520132167042 -89.13319685729019 64.88829975673853 -81.62690092171621 72.71480179079188 8.807949836310435e-11 -5.849330082935413e-12 8.809100302574121e-11 1.4472100276195017e-10 -6.854620254316737e-12 1.5315199474829856e-10 8.807219923859123e-11 -5.84913013351391e-12 8.81041973580526e-11 -7.730910121524428 5.474879855648998 -0.41731399283890674 8.807670295371635e-11 -5.85188011749936e-12 8.808579735225866e-11 -2.90554006136521 0.9651829962377875 -0.10290200252939893 8.807719991538532e-11 -5.852860063790377e-12 8.809030106738378e-11 -10.278599710243157 0.7318009818271524 -0.025912300303053633 8.808730066130732e-11 -5.8477599946624835e-12 8.808059789079696e-11 -2.221669932038622 -0.7334870246959406 0.20891999872313852 -2.0321699793705798e-16 0.0 -3.882510030490358e-19 -67.3218005353657 -47.1693000684864 -66.81929668793869 -2.3589499041667086 71.30529663291136 2.5262899657188442 4.611739885611201 -6.335479849089197 19.57120014209244 2.0321699793705798e-16 0.0 3.882510030490358e-19 23.262700529978186 -33.80810108958038 34.080000675154835 7.478180315629262 84.17159718003118 -9.673390308266667 21.10010042175936 -28.003000370581482 31.41939952171933
22.93889986904105 62.04410195350647 -2.1249999994324753 -543.4179919517052 43.08049952941206 -180.47799530745218 -5.5021899401584715 13.272700217830163 -1.3646599500592058 5.325810123239823 -10.88209985737985 0.004441079961921203 -7.784660295197843 19.270600101625597 -15.533999974650257 12.637299672174924 -27.80160029007261 -27.7001993016546 -0.0 0.0 0.0 -0.0 0.0 0.0 -1.552810028281754e-14 -5.790069951808887e-14 1.369059998115678e-13 51.62619999250023 -7.957450420820826 27.70930052872364 -27.636499249907768 -28.763699029013313 65.27910269047916 -1.6496600519051545 33.873599188626216 5.413630134266909 7.882479986484884e-10 -4.295740145383345e-10 -7.772370177335956e-10 1.3407800208446921e-09 -7.363320033676271e-10 -1.3588799611828983e-09 7.882520240380072e-10 -4.2957302061499654e-10 -7.7724800058648e-10 7.730910121524428 5.474879855648998 0.41731399283890674 7.882499864951644e-10 -4.295760023850104e-10 -7.772339862674148e-10 2.90554006136521 0.9651829962377875 0.10290200252939893 7.88258981501373e-10 -4.295750084616725e-10 -7.772370177335956e-10 10.278599710243157 0.7318009818271524 0.025912300303053633 7.882489925718264e-10 -4.295740145383345e-10 -7.772409934269474e-10 2.221669932038622 -0.7334870246959406 -0.20891999872313852 -1.564139989964713e-14 -5.7896301358787e-14 1.3657599833611489e-13 -85.08070218874906 80.0970000193359 12.293800067304874 27.40390057281757 -42.827400039528065 -89.15659708538665 64.39970217446168 -81.60429982575265 72.22099960436746 4.0993500875938494e-10 1.6253500377986767e-10 -1.309009957093222e-09 7.906650214217332e-10 2.352290037128526e-10 -2.1865899962953087e-09 4.0992899552319026e-10 1.6253900432130294e-10 -1.3089899792341291e-09 -7.730910121524428 5.474879855648998 -0.41731399283890674 4.0993398998796353e-10 1.6253799797392327e-10 -1.309009957093222e-09 -2.90554006136521 0.9651829962377875 -0.10290200252939893 4.0993500875938494e-10 1.6253799797392327e-10 -1.309009957093222e-09 -10.278599710243157 0.7318009818271524 -0.025912300303053633 4.0994300984225547e-10 1.6254199851535854e-10 -1.3090199957189355e-09 -2.221669932038622 -0.7334870246959406 0.20891999872313852 -2.0321699793705798e-16 0.0 -3.882510030490358e-19 -67.40719839055836 -47.25590003697299 -66.90530242996749 -2.3799298974194607 71.41990037699502 2.545739996597513 4.6411301896097665 -6.408389984044967 19.56920060421292 2.0321699793705798e-16 0.0 3.882510030490358e-19 23.34919975317452 -33.78779835227252 34.149798378283194 7.574789926344507 84.2409031095393 -9.775450409939582 21.144500066459027 -28.040600561962403 31.451299920237876
